<?xml version="1.0" standalone="no"?>
<!DOCTYPE svg PUBLIC "-//W3C//DTD SVG 20010904//EN"
 "http://www.w3.org/TR/2001/REC-SVG-20010904/DTD/svg10.dtd">
<svg version="1.0" xmlns="http://www.w3.org/2000/svg"
 width="100.000000pt" height="100.000000pt" viewBox="0 0 100.000000 100.000000"
 preserveAspectRatio="xMidYMid meet">
<metadata>
Created by potrace 1.14, written by Peter Selinger 2001-2017
</metadata>
<g transform="translate(0.000000,100.000000) scale(0.100000,-0.100000)"
fill="#000000" stroke="none">
<path d="M422 960 c2 -40 -3 -52 -25 -56 -7 -2 -24 -6 -39 -9 -20 -4 -28 -1
-28 9 0 7 -6 25 -13 39 -10 20 -17 23 -30 15 -13 -7 -15 -13 -7 -28 18 -34 12
-57 -17 -65 -15 -3 -31 -12 -35 -18 -5 -8 -14 -7 -32 2 -14 8 -25 17 -24 20 4
33 -14 40 -38 16 -9 -8 -11 -15 -6 -15 5 0 14 -12 21 -27 12 -25 9 -29 -48
-81 -34 -30 -59 -57 -56 -62 3 -4 22 -8 42 -8 21 0 58 -6 83 -12 25 -6 56 -12
70 -14 14 -2 48 -9 75 -16 28 -7 57 -14 65 -15 8 -1 26 -5 40 -8 175 -43 407
-98 453 -107 31 -6 57 -16 57 -22 0 -6 -9 -8 -20 -5 -11 3 -20 2 -20 -2 0 -4
-51 -19 -112 -34 -62 -15 -187 -45 -277 -67 -91 -22 -167 -43 -170 -48 -3 -4
-24 -8 -46 -9 -22 -1 -65 -9 -95 -17 -30 -9 -75 -19 -99 -21 -25 -3 -46 -7
-48 -9 -9 -9 13 -35 65 -76 31 -25 56 -49 56 -55 -4 -27 -17 -55 -26 -55 -6 0
-5 -7 2 -15 7 -8 15 -15 19 -15 9 0 46 59 44 70 -1 4 10 2 25 -5 15 -8 39 -18
55 -24 27 -10 27 -11 13 -44 -15 -38 -7 -63 19 -54 9 4 14 11 10 16 -3 5 -1
12 5 16 6 4 8 10 5 15 -8 13 19 29 45 28 37 -2 50 -17 50 -54 0 -27 4 -34 20
-34 17 0 20 7 20 40 0 31 4 40 18 41 9 1 31 2 49 4 28 2 32 -1 37 -29 9 -46
20 -59 45 -51 18 6 19 9 7 28 -16 27 -15 71 2 73 6 1 13 2 15 4 1 1 9 3 17 5
8 2 22 6 30 9 15 6 40 -32 40 -60 0 -7 8 -10 20 -7 24 6 24 10 4 58 -14 34
-14 38 3 51 36 27 55 27 78 0 25 -29 40 -33 49 -11 3 8 1 15 -5 15 -6 0 -7 5
-4 10 3 6 2 10 -4 10 -6 0 -15 8 -20 19 -8 14 -3 25 24 55 l34 38 36 -22 c31
-19 36 -20 41 -5 7 17 -25 55 -46 55 -6 0 5 30 25 67 45 84 46 127 5 200 -27
47 -40 86 -24 70 4 -3 16 5 27 19 28 37 8 53 -31 26 l-29 -21 -36 39 -37 38
24 29 c21 25 22 30 9 42 -13 12 -18 10 -39 -13 -26 -28 -44 -34 -44 -14 0 6
-3 9 -6 5 -3 -3 -15 3 -27 14 -20 18 -20 20 -4 55 15 30 15 37 3 49 -12 12
-16 12 -28 -2 -7 -9 -12 -19 -12 -22 1 -3 -3 -16 -9 -28 -9 -21 -12 -21 -43
-8 -19 8 -34 11 -34 7 0 -4 -7 1 -14 11 -10 13 -12 27 -5 50 13 46 11 57 -10
57 -14 0 -21 -9 -26 -32 -12 -60 -15 -65 -38 -62 -12 1 -35 3 -50 3 -21 1 -28
6 -26 19 5 51 -1 72 -21 72 -18 0 -20 -6 -18 -40z m-51 -171 c15 -29 -2 -64
-31 -66 -26 -2 -50 18 -50 42 0 43 61 61 81 24z"/>
<path d="M115 645 c-16 -8 -38 -20 -47 -28 -24 -19 -57 -96 -52 -121 11 -59
16 -74 37 -96 48 -53 92 -69 161 -56 35 7 86 47 104 82 18 34 17 99 -2 141
-32 72 -130 110 -201 78z"/>
</g>
</svg>
